<svg t="1744099482226" class="icon" viewBox="0 0 1073 1024" version="1.1" xmlns="http://www.w3.org/2000/svg" p-id="4019"
  width="200" height="200">
  <path d="M352.158157 1006.988553V493.968291h365.51702v513.020262" fill="#FF9999" p-id="4020"></path>
  <path d="M721.399878 1006.988553v-251.680322H1043.594981v251.680322H25.453536v-323.798675h326.704621v323.798675"
    fill="#ACE8C2" p-id="4021"></path>
  <path d="M721.399878 755.308231H1043.594981v251.680322h-322.195103z" fill="#8FDDFF" p-id="4022"></path>
  <path d="M25.453536 949.645979h1018.141445v57.351059H25.453536z" fill="#6E6E96" opacity=".15" p-id="4023"></path>
  <path
    d="M25.453536 683.189878h326.704621v51.509473H25.453536zM352.158157 493.968291h367.612695v51.246452H352.158157zM721.399878 755.308231H1043.594981v54.334815h-322.195103z"
    fill="#FFFFFF" opacity=".35" p-id="4024"></path>
  <path
    d="M734.639959 1006.988553h-33.938048V510.937315h-331.57473v496.051238h-33.938048V493.968291a16.969024 16.969024 0 0 1 16.969024-16.969024h365.512778a16.969024 16.969024 0 0 1 16.969024 16.969024v513.020262z"
    fill="#6E6E96" p-id="4025"></path>
  <path
    d="M1043.594981 1023.957577H25.453536a16.969024 16.969024 0 0 1-16.969024-16.969024v-323.798675a16.969024 16.969024 0 0 1 16.969024-16.969024h326.704621a16.969024 16.969024 0 0 1 16.969024 16.969024v306.829651h335.303673v-234.711298a16.969024 16.969024 0 0 1 16.969024-16.969025H1043.594981a16.969024 16.969024 0 0 1 16.969024 16.969025v251.680322a16.969024 16.969024 0 0 1-16.969024 16.969024z m-305.226079-33.938048H1026.625956v-217.742274h-288.257054v217.742274z m-695.946342 0h292.766573v-289.860627H42.42256v289.860627z"
    fill="#6E6E96" p-id="4026"></path>
  <path
    d="M663.20461 545.214743H699.972243v404.431236h-36.767633zM294.128337 734.699351h58.025577v214.946628H294.128337zM982.790725 809.643046h42.42256v140.002933h-42.42256z"
    fill="#6E6E96" opacity=".15" p-id="4027"></path>
  <path
    d="M366.955146 545.214743h38.180304v404.431236h-38.180304zM42.42256 734.699351h38.180304v214.946628h-38.180304zM738.152547 809.643046h40.301432v140.002933H738.152547z"
    fill="#FFFFFF" opacity=".35" p-id="4028"></path>
  <path d="M754.217971 85.269346h174.74701l-70.298425 130.555429 70.298425 126.542255h-259.104271l80.339844-60.053376"
    fill="#FF9EB0" p-id="4029"></path>
  <path
    d="M928.964981 359.336054h-259.100029a16.969024 16.969024 0 0 1-10.160203-30.55697l80.339844-60.053377a16.969024 16.969024 0 1 1 20.316164 27.184377l-39.45298 29.496406h179.218347l-56.294737-101.334769a16.973266 16.973266 0 0 1-0.101814-16.286021l56.825019-105.54733h-146.336621a16.969024 16.969024 0 0 1 0-33.938048h174.742767a16.969024 16.969024 0 0 1 14.941226 25.016584l-65.89072 122.384844 65.788906 118.431061a16.969024 16.969024 0 0 1-14.835169 25.203243z"
    fill="#6E6E96" p-id="4030"></path>
  <path d="M529.259619 33.047174h222.956007v247.264135h-222.956007z" fill="#FF9EB0" p-id="4031"></path>
  <path
    d="M752.211384 297.280333h-222.956008a16.969024 16.969024 0 0 1-16.969024-16.969024V33.047174a16.969024 16.969024 0 0 1 16.969024-16.969024h222.956008a16.969024 16.969024 0 0 1 16.969024 16.969024v247.264135a16.969024 16.969024 0 0 1-16.969024 16.969024z m-205.982741-33.938048h189.017959V50.016198h-189.017959v213.326087z"
    fill="#6E6E96" p-id="4032"></path>
  <path
    d="M791.180747 95.310766v237.010601h-84.403925l48.247177-41.383207v-196.840679zM547.251026 43.088594h26.106844v227.177052H547.251026z"
    fill="#963C3C" opacity=".15" p-id="4033"></path>
  <path d="M512.290595 33.047174h33.938048v454.731665h-33.938048z" fill="#6E6E96" p-id="4034"></path>
</svg>