<svg t="1732091262010" class="icon" viewBox="0 0 1024 1024" version="1.1" xmlns="http://www.w3.org/2000/svg"
  p-id="16643" width="200" height="200">
  <path
    d="M731.35616 121.98912 170.66496 121.98912c-67.21536 0-121.9072 54.69184-121.9072 121.9072L48.75776 902.0928c0 67.21536 54.69184 121.9072 121.9072 121.9072l560.6912 0c67.21536 0 121.9072-54.69184 121.9072-121.9072L853.26336 243.8912C853.26336 176.68096 798.57152 121.98912 731.35616 121.98912zM804.50048 902.0928c0 40.33536-32.80896 73.14432-73.14432 73.14432L170.66496 975.23712c-40.33536 0-73.14432-32.80896-73.14432-73.14432L97.52064 243.8912c0-40.33536 32.80896-73.14432 73.14432-73.14432l560.6912 0c40.33536 0 73.14432 32.80896 73.14432 73.14432L804.50048 902.0928zM975.23712 170.7008l0 633.80992c0 13.4656-10.91584 24.38144-24.38144 24.38144-13.4656 0-24.38144-10.91584-24.38144-24.38144L926.47424 170.7008c0-77.50144-44.4416-121.93792-121.93792-121.93792L268.25216 48.76288c-13.4656 0-24.38144-10.91584-24.38144-24.38144S254.78656 0 268.25216 0l536.28416 0C909.83424 0 975.23712 65.40288 975.23712 170.7008z"
    fill="#c8c9cc" p-id="16644"></path>
</svg>
