<svg t="1746774495421" class="icon" viewBox="0 0 1024 1024" version="1.1" xmlns="http://www.w3.org/2000/svg" p-id="2968"
  width="200" height="200">
  <path
    d="M512 73.152l120.554667 172.181333c14.506667 6.570667 28.373333 14.293333 41.514666 23.04l130.496-48.938666-48.938666 130.517333c8.746667 13.12 16.469333 26.986667 23.04 41.493333L950.826667 512 778.666667 632.554667c-6.570667 14.506667-14.293333 28.373333-23.04 41.493333l48.938666 130.517333-130.517333-48.938666a292.053333 292.053333 0 0 1-41.493333 23.04L512 950.826667 391.445333 778.666667a292.053333 292.053333 0 0 1-41.493333-23.04l-130.517333 48.938666 48.938666-130.496a292.053333 292.053333 0 0 1-23.04-41.514666L73.173333 512l172.181334-120.554667c6.570667-14.506667 14.293333-28.373333 23.04-41.514666l-48.938667-130.496 130.496 48.938666a292.053333 292.053333 0 0 1 41.514667-23.04L512 73.173333z m0 201.130667c-131.285333 0-237.717333 106.432-237.717333 237.717333 0 131.285333 106.432 237.717333 237.717333 237.717333 131.285333 0 237.717333-106.432 237.717333-237.717333 0-131.285333-106.432-237.717333-237.717333-237.717333z"
    fill="#FF9D00" p-id="2969"></path>
  <path
    d="M473.045333 498.602667c-7.082667-5.397333-10.666667-13.76-10.794666-25.109334 14.165333-7.829333 26.56-9.792 37.184-5.866666 15.914667 5.866667 40.064 15.829333 39.829333 54.784-0.256 38.933333-41.770667 55.466667-77.013333 51.904-35.242667-3.562667-81.514667-44.736-89.024-75.733334a252.224 252.224 0 0 1-7.509334-59.392v-16.469333l13.248-5.76 37.290667-39.402667c32.213333-20.48 55.296-30.506667 69.248-30.122666 20.928 0.597333 57.493333 1.194667 80.554667 15.658666 23.061333 14.464 64.96 39.274667 75.072 68.650667 10.112 29.376 21.973333 70.293333 15.125333 90.666667-6.890667 20.352-4.821333 35.157333-15.146667 51.904-10.282667 16.768-23.168 44.8-35.2 53.994666-12.010667 9.173333-36.309333 20.992-48.768 27.306667-12.458667 6.272-43.797333 10.346667-57.706666 12.437333-13.930667 2.090667-20.949333 10.752-37.184 7.978667-16.234667-2.794667-42.88 4.48-56.64-7.978667-13.781333-12.458667-38.144-22.528-32.384-25.066666 5.76-2.56 28.074667-14.677333 37.888-14.677334 9.813333 0 26.154667-1.962667 38.634666-7.125333 12.501333-5.162667 21.824-11.690667 35.754667-14.677333 13.930667-2.986667 24.298667-7.850667 39.04-14.656 14.72-6.826667 23.68-14.506667 32.597333-25.28 8.917333-10.773333 24.064-21.632 24.981334-32.896 0.917333-11.264 8.896-34.837333 0.917333-60.181334-7.957333-25.365333-21.248-50.688-32.512-56.533333-11.264-5.802667-37.184-11.626667-51.093333-5.802667-13.930667 5.824-42.56 7.893333-49.685334 20.586667-7.125333 12.693333-18.688 22.997333-19.626666 35.882667-0.917333 12.864 1.493333 32.853333 10.56 38.613333s42.965333 0.426667 32.362666-7.637333z"
    fill="#2CCBFF" p-id="2970"></path>
</svg>