<svg xmlns="http://www.w3.org/2000/svg" version="1.1" width="200px" height="200px" style="shape-rendering:geometricPrecision; text-rendering:geometricPrecision; image-rendering:optimizeQuality; fill-rule:evenodd; clip-rule:evenodd" xmlns:xlink="http://www.w3.org/1999/xlink">
<g><path style="opacity:0.9" fill="#333333" d="M 87.5,2.5 C 128.546,-0.0594155 160.379,15.6073 183,49.5C 202.951,87.6567 200.618,124.323 176,159.5C 144.646,195.215 106.479,205.048 61.5,189C 31.9355,175.213 12.9355,152.546 4.5,121C 6.35855,115.236 10.0252,113.569 15.5,116C 21.2676,135.197 31.6009,151.531 46.5,165C 76.1643,186.465 107.498,189.131 140.5,173C 178.53,147.92 191.03,113.42 178,69.5C 159.456,29.0049 127.956,11.5049 83.5,17C 44.6339,27.0333 21.9672,51.8667 15.5,91.5C 49.8285,92.6666 84.1618,92.8332 118.5,92C 112.514,86.1908 107.514,79.6908 103.5,72.5C 104.956,67.2719 108.289,65.4385 113.5,67C 122.038,75.8691 130.204,85.0357 138,94.5C 140,97.8333 140,101.167 138,104.5C 130.167,113.667 122.333,122.833 114.5,132C 106.685,134.522 103.518,131.689 105,123.5C 109.38,117.908 113.88,112.408 118.5,107C 81.8333,106.667 45.1667,106.333 8.5,106C 6.15226,105.654 4.31892,104.487 3,102.5C 3.59987,57.1223 24.7665,25.6223 66.5,8C 73.514,5.70496 80.514,3.87163 87.5,2.5 Z"/></g>
</svg>
