<svg t="1732091865881" class="icon" viewBox="0 0 1024 1024" version="1.1" xmlns="http://www.w3.org/2000/svg"
  p-id="18146" width="200" height="200">
  <path
    d="M874.667 0a64 64 0 0 1 63.701 57.856l0.299 6.144v405.333a42.667 42.667 0 0 1-85.035 4.992l-0.299-4.992v-384h-768v768H426.88a42.667 42.667 0 0 1 42.368 37.675l0.299 4.992a42.667 42.667 0 0 1-37.718 42.368l-4.949 0.299H64A64 64 0 0 1 0.299 880.81L0 874.667V64A64 64 0 0 1 57.856 0.299L64 0h810.667z"
    p-id="18147"></path>
  <path
    d="M426.667 512H640a42.667 42.667 0 0 0 0-85.333H426.667a42.667 42.667 0 0 0 0 85.333z m-213.334 0H256a42.667 42.667 0 0 0 0-85.333h-42.667a42.667 42.667 0 0 0 0 85.333z m213.334 170.667h128a42.667 42.667 0 0 0 0-85.334h-128a42.667 42.667 0 0 0 0 85.334z m-213.334 0H256a42.667 42.667 0 0 0 0-85.334h-42.667a42.667 42.667 0 0 0 0 85.334z m170.667-384a42.667 42.667 0 0 0 42.667 42.666H640A42.667 42.667 0 0 0 640 256H426.667A42.667 42.667 0 0 0 384 298.667z m-213.333 0a42.667 42.667 0 0 0 42.666 42.666H256A42.667 42.667 0 1 0 256 256h-42.667a42.667 42.667 0 0 0-42.666 42.667z m488.064 343.936h298.666q42.667 0 42.667 42.666 0 42.667-42.667 42.667H658.731q-42.667 0-42.667-42.667 0-42.666 42.667-42.666z m0 170.667h298.666q42.667 0 42.667 42.666 0 42.667-42.667 42.667H658.731q-42.667 0-42.667-42.667t42.667-42.667z"
    p-id="18148"></path>
  <path
    d="M688.896 825.6l90.539 90.539a42.667 42.667 0 0 1-60.331 60.33l-90.539-90.453a42.667 42.667 0 0 1 60.331-60.416zM897.28 564.565l90.539 90.539a42.667 42.667 0 0 1-60.374 60.33l-90.453-90.538a42.667 42.667 0 0 1 60.288-60.33z"
    p-id="18149"></path>
</svg>
